<?xml version="1.0" standalone="no"?>
<!DOCTYPE svg PUBLIC "-//W3C//DTD SVG 20010904//EN"
 "http://www.w3.org/TR/2001/REC-SVG-20010904/DTD/svg10.dtd">
<svg version="1.0" xmlns="http://www.w3.org/2000/svg"
 width="270.000000pt" height="189.000000pt" viewBox="0 0 270.000000 189.000000"
 preserveAspectRatio="xMidYMid meet">
<metadata>
Created by potrace 1.15, written by Peter Selinger 2001-2017
</metadata>
<g transform="translate(0.000000,189.000000) scale(0.100000,-0.100000)"
fill="#000000" stroke="none">
<path d="M2265 1768 c-317 -163 -593 -326 -936 -549 l-135 -89 -82 30 c-156
57 -299 140 -412 240 -92 80 -120 93 -221 98 -145 7 -260 -46 -304 -141 -56
-119 -8 -218 121 -251 45 -12 49 -15 46 -39 -3 -27 -2 -27 57 -27 58 0 60 1
58 26 -2 23 3 28 45 38 51 14 108 49 153 96 41 43 81 40 191 -14 137 -67 226
-135 263 -199 17 -30 31 -61 31 -69 0 -37 -105 -249 -162 -325 -44 -60 -67
-69 -138 -54 -77 17 -143 13 -207 -10 -47 -18 -74 -38 -143 -108 -47 -48 -108
-104 -137 -124 -83 -60 -130 -146 -121 -223 2 -21 9 -30 25 -32 22 -3 25 3 38
64 3 17 19 44 35 59 23 22 38 27 78 27 29 0 62 -7 82 -18 79 -45 97 -53 137
-59 87 -14 251 59 316 140 16 20 44 86 68 157 48 148 70 183 135 217 l49 27
-3 46 c-4 50 5 74 50 128 l28 35 433 1 c251 0 511 6 622 13 286 20 305 37 80
70 -77 11 -230 34 -340 51 -110 17 -263 39 -340 50 -177 25 -196 30 -190 41 5
8 457 393 649 553 101 84 146 128 140 138 -7 11 -14 10 -59 -14z m14 -22 c-2
-2 -144 -123 -315 -267 -635 -539 -690 -586 -721 -623 -58 -65 -68 -87 -68
-145 l0 -56 -32 0 c-33 -1 -83 -37 -83 -60 0 -7 -13 -41 -29 -77 -16 -35 -37
-93 -46 -129 -16 -62 -58 -141 -73 -137 -4 2 -44 -16 -89 -40 -54 -28 -109
-47 -162 -57 -83 -16 -101 -13 -141 20 -32 28 -129 74 -135 65 -3 -6 -15 -10
-26 -10 -11 0 -18 -4 -14 -9 3 -5 -3 -12 -12 -16 -28 -9 -52 -49 -58 -96 -6
-49 -21 -71 -31 -46 -10 28 4 80 39 138 26 44 43 59 91 83 45 23 66 41 91 80
71 109 167 169 275 170 36 0 86 -5 111 -12 39 -12 51 -11 81 1 95 40 198 249
228 462 10 74 14 82 47 110 20 17 60 50 88 75 48 42 83 65 280 188 256 160
462 275 477 266 6 -4 8 -3 5 3 -4 6 41 35 101 66 92 48 137 68 121 53z m-1701
-280 c24 -9 71 -40 104 -71 89 -80 228 -172 345 -227 56 -26 107 -48 113 -48
11 0 12 -6 4 -37 -9 -34 -33 -36 -72 -5 -103 79 -269 164 -331 169 -48 4 -54
1 -140 -64 -50 -38 -114 -53 -224 -53 -135 1 -207 48 -207 136 0 56 14 92 53
132 80 84 230 112 355 68z m1182 -436 c113 -17 291 -44 395 -60 105 -16 217
-32 250 -36 33 -3 67 -10 75 -14 24 -13 -18 -19 -230 -30 -219 -11 -911 -12
-865 0 l30 7 -30 8 c-45 12 -48 16 -27 31 17 12 25 12 55 -1 60 -25 529 -47
542 -25 4 6 -39 10 -122 11 -88 0 -122 3 -108 10 13 6 -17 7 -90 4 -113 -6
-127 -3 -59 15 33 8 26 9 -46 6 -68 -3 -80 -2 -57 7 39 16 33 27 -15 27 l-43
1 45 39 c33 28 52 37 70 35 14 -3 117 -18 230 -35z"/>
<path d="M1847 1507 c-214 -127 -461 -292 -491 -327 -28 -34 -42 -87 -32 -125
8 -32 20 -32 23 0 4 50 7 56 20 51 8 -3 12 -2 8 3 -3 5 9 21 27 36 18 15 27
24 19 19 -10 -5 -12 -3 -7 5 5 7 15 10 24 6 9 -3 13 -3 9 1 -7 7 41 54 56 54
5 0 6 4 3 9 -9 13 31 44 46 35 10 -6 10 -4 -1 9 -12 15 -12 17 1 12 10 -4 23
4 35 19 11 14 24 22 28 18 5 -4 5 -1 0 7 -5 9 -3 12 5 9 7 -2 27 9 43 25 16
16 35 26 44 23 8 -3 12 -2 9 3 -4 5 15 23 41 40 27 17 53 35 59 40 6 5 25 16
42 25 18 9 32 19 32 21 0 7 -2 7 -43 -18z"/>
<path d="M657 494 c-95 -30 -169 -135 -152 -214 21 -97 147 -127 279 -67 128
59 185 187 109 247 -50 39 -166 56 -236 34z m187 -24 c105 -39 84 -154 -42
-231 -93 -57 -239 -51 -272 10 -26 49 0 117 62 164 73 56 188 82 252 57z"/>
<path d="M335 1442 c-118 -56 -160 -161 -95 -235 38 -44 98 -61 189 -55 78 6
160 44 196 92 26 35 27 106 2 133 -62 69 -213 102 -292 65z m232 -41 c48 -22
63 -45 63 -95 0 -42 -43 -89 -110 -120 -54 -24 -180 -28 -220 -7 -79 42 -93
104 -39 165 61 70 214 98 306 57z"/>
</g>
</svg>
