<?xml version="1.0" standalone="no"?>
<!DOCTYPE svg PUBLIC "-//W3C//DTD SVG 20010904//EN"
 "http://www.w3.org/TR/2001/REC-SVG-20010904/DTD/svg10.dtd">
<svg version="1.0" xmlns="http://www.w3.org/2000/svg"
 width="270.000000pt" height="189.000000pt" viewBox="0 0 288.000000 105.000000"
 preserveAspectRatio="xMidYMid meet">
<metadata>
Created by potrace 1.15, written by Peter Selinger 2001-2017
</metadata>
<g transform="translate(0.000000,105.000000) scale(0.100000,-0.100000)"
fill="#000000" stroke="none">
<path d="M401 906 c-32 -34 -113 -42 -158 -16 l-33 19 -6 -25 c-4 -14 -4 -28
0 -31 3 -4 6 3 6 15 0 15 5 20 15 16 8 -4 12 -10 9 -15 -3 -5 -1 -9 3 -9 5 0
9 -9 10 -20 1 -11 -4 -20 -10 -20 -7 0 -6 -4 3 -10 8 -5 10 -10 4 -10 -14 0
-13 -32 1 -42 6 -5 4 -8 -5 -8 -13 0 -13 -1 0 -10 12 -7 12 -10 1 -10 -8 0
-11 -6 -7 -15 4 -10 -2 -19 -17 -25 -19 -7 -19 -9 -3 -9 15 -1 16 -4 6 -16
-10 -12 -10 -15 1 -16 8 0 5 -4 -6 -9 -19 -8 -19 -9 -1 -9 20 -1 20 -1 0 -16
-19 -14 -19 -14 1 -15 16 -1 14 -4 -10 -15 -16 -7 -24 -14 -17 -14 19 -1 14
-39 -5 -44 -13 -3 -11 -5 7 -7 24 -2 23 -3 -5 -9 -21 -6 -34 -3 -42 7 -7 9
-16 12 -20 8 -9 -9 17 -32 157 -141 135 -105 134 -104 195 -90 36 9 44 13 27
16 l-23 4 21 18 c21 18 22 18 27 -1 3 -15 16 -21 51 -25 26 -3 67 -17 92 -30
46 -26 365 -137 392 -137 9 0 26 15 39 34 21 31 27 34 73 33 28 -1 69 0 91 2
22 1 94 -1 160 -6 l120 -8 -75 -6 c-41 -3 8 -5 110 -4 134 2 160 0 95 -5 -64
-5 -28 -6 128 -6 197 1 218 -1 223 -16 7 -22 63 -38 131 -38 73 0 99 15 119
67 12 31 21 42 33 39 126 -38 203 -58 236 -60 22 -1 54 -10 72 -19 40 -21 59
-21 67 -1 9 23 0 33 -60 60 -30 13 -54 29 -54 34 0 20 -209 103 -236 94 -15
-4 -16 -4 -5 4 10 7 -1 13 -43 22 -32 6 -60 10 -62 7 -3 -3 13 -8 36 -12 23
-4 39 -9 37 -12 -3 -2 -31 0 -63 6 -65 12 -73 8 -75 -44 -2 -30 -2 -30 -9 5
l-7 35 -2 -32 c-2 -49 -24 -65 -80 -57 -64 9 -68 17 -20 41 l41 21 -64 10
c-35 6 -133 18 -218 27 -85 8 -177 20 -205 25 -27 5 -120 19 -205 29 -85 11
-231 32 -325 46 -93 14 -179 24 -190 23 -11 -2 30 -11 90 -20 331 -51 639 -94
742 -104 67 -6 106 -24 89 -41 -4 -4 4 -13 16 -20 23 -12 22 -12 -8 -13 -142
-1 -1149 136 -1204 165 -18 9 -42 14 -54 11 -11 -3 -38 -3 -58 1 -33 5 -36 8
-27 24 5 11 16 19 24 19 8 0 15 7 15 15 0 9 9 15 23 16 12 0 -2 7 -32 15 -66
18 -68 19 -91 56 l-18 30 -12 -22 c-7 -13 -10 -40 -7 -64 5 -39 5 -40 -8 -16
-8 14 -15 52 -16 85 0 33 -5 71 -10 85 -5 17 -7 2 -4 -45 3 -51 2 -60 -4 -35
-7 28 -9 30 -10 10 0 -14 6 -46 14 -73 8 -26 12 -53 9 -60 -2 -7 28 -38 71
-71 41 -33 75 -63 75 -67 0 -14 -45 -18 -65 -5 -11 7 -49 41 -85 74 -54 51
-62 63 -50 72 8 6 23 8 32 6 15 -3 17 1 12 22 -9 35 -12 38 -26 24 -16 -16
-45 -15 -50 1 -3 6 4 67 16 134 20 118 21 122 51 135 31 13 33 34 3 32 -9 0
-15 3 -12 8 3 4 18 8 35 8 25 0 29 -4 30 -27 2 -25 2 -25 6 -5 3 12 21 33 42
46 32 20 58 25 172 34 l134 9 -151 2 c-146 1 -151 0 -173 -23z"/>
</g>
</svg>
